<svg width="24" height="24" viewBox="0 0 24 24" fill="none" xmlns="http://www.w3.org/2000/svg">
<path d="M11.175 21V13.6182L4.94421 17.3945C4.5367 17.6415 4.04103 17.4412 3.83727 16.9473C3.63351 16.4533 3.79873 15.8525 4.20625 15.6055L10.1551 12L4.20625 8.39453C3.79873 8.14754 3.63351 7.54671 3.83727 7.05273C4.04103 6.55876 4.5367 6.35848 4.94421 6.60547L11.175 10.3818V3C11.175 2.44772 11.5444 2 12 2C12.4556 2 12.825 2.44772 12.825 3V10.3818L19.0558 6.60547C19.4633 6.35848 19.959 6.55876 20.1627 7.05273C20.3665 7.54671 20.2013 8.14754 19.7938 8.39453L13.8449 12L19.7938 15.6055C20.2013 15.8525 20.3665 16.4533 20.1627 16.9473C19.959 17.4412 19.4633 17.6415 19.0558 17.3945L12.825 13.6182V21C12.825 21.5523 12.4556 22 12 22C11.5444 22 11.175 21.5523 11.175 21Z" fill="#C2C4C8" fill-opacity="0.88"/>
</svg>
