<svg width="22" height="22" viewBox="0 0 22 22" fill="none" xmlns="http://www.w3.org/2000/svg">
<g clip-path="url(#clip0_13657_32018)">
<path d="M10.999 0.845093C16.5586 0.845093 21.083 4.95667 21.083 10.0121C21.083 15.0666 16.5586 19.1791 10.999 19.1791C9.89452 19.1791 8.69896 19.068 8.29199 19.0267L5.02148 20.7845C4.91931 20.8394 4.8043 20.8661 4.68848 20.8607C4.57262 20.8553 4.45992 20.8184 4.36328 20.7543C4.26656 20.69 4.18863 20.6003 4.13867 20.4955C4.08874 20.3907 4.06811 20.2741 4.0791 20.1586L4.37891 17.0209C1.83162 15.1197 0.916026 12.1735 0.916016 10.0121C0.916016 4.95675 5.43957 0.84523 10.999 0.845093ZM12.6172 5.26013C12.7144 4.68122 12.0449 4.33917 11.7021 4.79333L7.45312 10.432C7.17245 10.8045 7.41415 11.3666 7.85547 11.3666H9.97559L9.38184 14.9066C9.28471 15.4861 9.95461 15.8279 10.2969 15.3734L14.5459 9.73474C14.8266 9.36227 14.5842 8.80029 14.1436 8.80017H12.0234L12.6172 5.26013Z" fill="url(#paint0_linear_13657_32018)"/>
</g>
<defs>
<linearGradient id="paint0_linear_13657_32018" x1="2.3165" y1="1.10846" x2="22.9766" y2="6.82119" gradientUnits="userSpaceOnUse">
<stop offset="0.15625" stop-color="#14C391"/>
<stop offset="1" stop-color="#0FB9B1"/>
</linearGradient>
<clipPath id="clip0_13657_32018">
<rect width="22" height="22" fill="white"/>
</clipPath>
</defs>
</svg>
