<svg width="18" height="18" viewBox="0 0 18 18" fill="none" xmlns="http://www.w3.org/2000/svg">
<path fill-rule="evenodd" clip-rule="evenodd" d="M12.0831 8.57627L9.65764 4.84502C9.58635 4.73529 9.48877 4.64511 9.37377 4.58268C9.25877 4.52025 9.12999 4.48755 8.99914 4.48755C8.86828 4.48755 8.7395 4.52025 8.6245 4.58268C8.5095 4.64511 8.41192 4.73529 8.34064 4.84502L5.91514 8.57627L3.02764 7.08377C2.89593 7.01572 2.74767 6.98631 2.59996 6.99893C2.45225 7.01155 2.31112 7.06568 2.19287 7.15508C2.07461 7.24448 1.98405 7.3655 1.93163 7.50417C1.87922 7.64283 1.86708 7.7935 1.89664 7.93877L3.14314 14.094H14.8551L16.1016 7.93802C16.131 7.7928 16.1187 7.64224 16.0663 7.5037C16.0138 7.36515 15.9232 7.24426 15.805 7.15497C15.6867 7.06567 15.5457 7.01161 15.3981 6.99901C15.2505 6.98642 15.1023 7.0158 14.9706 7.08377L12.0831 8.57627Z" fill="#FBD635"/>
<path fill-rule="evenodd" clip-rule="evenodd" d="M14.1053 16.344H3.89258C3.69367 16.344 3.5029 16.265 3.36225 16.1243C3.2216 15.9837 3.14258 15.7929 3.14258 15.594V14.094H14.8553V15.594C14.8553 15.7929 14.7763 15.9837 14.6357 16.1243C14.495 16.265 14.3042 16.344 14.1053 16.344Z" fill="#F9BE2D"/>
<path fill-rule="evenodd" clip-rule="evenodd" d="M10.1775 2.6775C10.1775 2.52287 10.147 2.36975 10.0879 2.22689C10.0287 2.08403 9.94196 1.95422 9.83262 1.84488C9.72328 1.73554 9.59347 1.64881 9.45061 1.58963C9.30775 1.53046 9.15463 1.5 9 1.5C8.84537 1.5 8.69225 1.53046 8.54939 1.58963C8.40653 1.64881 8.27672 1.73554 8.16738 1.84488C8.05804 1.95422 7.97131 2.08403 7.91213 2.22689C7.85296 2.36975 7.8225 2.52287 7.8225 2.6775C7.8225 2.98979 7.94656 3.28929 8.16738 3.51012C8.38821 3.73094 8.68771 3.855 9 3.855C9.31229 3.855 9.61179 3.73094 9.83262 3.51012C10.0534 3.28929 10.1775 2.98979 10.1775 2.6775ZM18 5.6655C18 5.51087 17.9695 5.35775 17.9104 5.21489C17.8512 5.07203 17.7645 4.94222 17.6551 4.83288C17.5458 4.72354 17.416 4.63681 17.2731 4.57763C17.1302 4.51846 16.9771 4.488 16.8225 4.488C16.6679 4.488 16.5148 4.51846 16.3719 4.57763C16.229 4.63681 16.0992 4.72354 15.9899 4.83288C15.8805 4.94222 15.7938 5.07203 15.7346 5.21489C15.6755 5.35775 15.645 5.51087 15.645 5.6655C15.645 5.97779 15.7691 6.27729 15.9899 6.49812C16.2107 6.71894 16.5102 6.843 16.8225 6.843C17.1348 6.843 17.4343 6.71894 17.6551 6.49812C17.8759 6.27729 18 5.97779 18 5.6655ZM0 5.6655C0 5.35321 0.124058 5.05371 0.344882 4.83288C0.565706 4.61206 0.865208 4.488 1.1775 4.488C1.48979 4.488 1.78929 4.61206 2.01012 4.83288C2.23094 5.05371 2.355 5.35321 2.355 5.6655C2.355 5.97779 2.23094 6.27729 2.01012 6.49812C1.78929 6.71894 1.48979 6.843 1.1775 6.843C0.865208 6.843 0.565706 6.71894 0.344882 6.49812C0.124058 6.27729 0 5.97779 0 5.6655Z" fill="#FBD635"/>
</svg>
