<svg width="18" height="18" viewBox="0 0 18 18" fill="none" xmlns="http://www.w3.org/2000/svg">
<path fill-rule="evenodd" clip-rule="evenodd" d="M9.00039 2.10754L5.75664 0.777787C5.64513 0.732123 5.52409 0.714606 5.40421 0.726779C5.28433 0.738953 5.16928 0.780445 5.06923 0.847593C4.96917 0.914742 4.88718 1.00548 4.83049 1.11181C4.77379 1.21814 4.74414 1.33679 4.74414 1.45729V4.93354H13.2551V1.47904C13.2551 1.35588 13.2248 1.23462 13.1668 1.12597C13.1089 1.01731 13.025 0.924604 12.9227 0.856033C12.8204 0.787463 12.7028 0.745139 12.5803 0.732801C12.4577 0.720462 12.3341 0.738489 12.2201 0.785288L9.00039 2.10754Z" fill="url(#paint0_linear_13639_37769)"/>
<path fill-rule="evenodd" clip-rule="evenodd" d="M1.875 5.08057V14.8306C1.875 15.2284 2.03304 15.6099 2.31434 15.8912C2.59564 16.1725 2.97718 16.3306 3.375 16.3306H14.625C15.0228 16.3306 15.4044 16.1725 15.6857 15.8912C15.967 15.6099 16.125 15.2284 16.125 14.8306V5.08057C16.125 4.68274 15.967 4.30121 15.6857 4.01991C15.4044 3.7386 15.0228 3.58057 14.625 3.58057H3.375C2.97718 3.58057 2.59564 3.7386 2.31434 4.01991C2.03304 4.30121 1.875 4.68274 1.875 5.08057Z" fill="url(#paint1_linear_13639_37769)"/>
<path fill-rule="evenodd" clip-rule="evenodd" d="M7.875 16.3306H10.125V3.50012H7.875V16.3306Z" fill="url(#paint2_linear_13639_37769)"/>
<defs>
<linearGradient id="paint0_linear_13639_37769" x1="8.99964" y1="0.723022" x2="8.99964" y2="4.93354" gradientUnits="userSpaceOnUse">
<stop stop-color="#D6E3F1"/>
<stop offset="1" stop-color="#9DCCFF"/>
</linearGradient>
<linearGradient id="paint1_linear_13639_37769" x1="9" y1="3.58057" x2="9" y2="16.3306" gradientUnits="userSpaceOnUse">
<stop stop-color="#64A8FF"/>
<stop offset="1" stop-color="#C770E4"/>
</linearGradient>
<linearGradient id="paint2_linear_13639_37769" x1="9" y1="2.83044" x2="9" y2="16.3304" gradientUnits="userSpaceOnUse">
<stop stop-color="#D6E3F1"/>
<stop offset="1" stop-color="#9DCCFF"/>
</linearGradient>
</defs>
</svg>
