<svg width="35" height="35" viewBox="0 0 35 35" fill="none" xmlns="http://www.w3.org/2000/svg">
<g filter="url(#filter0_d_13639_37793)">
<path d="M17.075 8C16.6193 8 16.25 8.36937 16.25 8.825C16.25 9.28063 16.6193 9.65 17.075 9.65C21.1757 9.65 24.4999 12.9743 24.4999 17.075C24.4999 21.1757 21.1757 24.5 17.075 24.5C12.9743 24.5 9.64999 21.1757 9.64999 17.075C9.64999 16.6194 9.28063 16.25 8.825 16.25C8.36936 16.25 8 16.6194 8 17.075C8 22.087 12.063 26.15 17.075 26.15C22.0869 26.15 26.1499 22.087 26.1499 17.075C26.1499 12.063 22.0869 8 17.075 8Z" fill="#F7F7F8"/>
<path d="M14.7637 9.09984C14.9576 9.56749 14.7357 10.1038 14.2681 10.2977C13.8005 10.4916 13.2641 10.2698 13.0702 9.80211C12.8763 9.33446 13.0982 8.79815 13.5658 8.60423C14.0335 8.4103 14.5698 8.63219 14.7637 9.09984Z" fill="#F7F7F8"/>
<path d="M11.8895 10.5931C12.2475 10.9511 12.2475 11.5315 11.8895 11.8895C11.5315 12.2475 10.9511 12.2475 10.5932 11.8895C10.2352 11.5315 10.2352 10.9511 10.5932 10.5932C10.9511 10.2352 11.5315 10.2352 11.8895 10.5931Z" fill="#F7F7F8"/>
<path d="M9.80213 13.0702C10.2698 13.2641 10.4917 13.8004 10.2977 14.2681C10.1038 14.7357 9.56751 14.9576 9.09986 14.7637C8.63222 14.5698 8.41032 14.0335 8.60425 13.5658C8.79817 13.0982 9.33448 12.8763 9.80213 13.0702Z" fill="#F7F7F8"/>
<path d="M16.6166 12.125C17.0723 12.125 17.4416 12.4944 17.4416 12.95V17.1917L19.4685 19.2186C19.7907 19.5408 19.7907 20.0631 19.4685 20.3853C19.1463 20.7075 18.624 20.7075 18.3018 20.3853L16.0332 18.1167C15.8686 17.9521 15.7881 17.7353 15.7916 17.5197V12.95C15.7916 12.4944 16.161 12.125 16.6166 12.125Z" fill="#F7F7F8"/>
</g>
<defs>
<filter id="filter0_d_13639_37793" x="-1.92383" y="-1.92505" width="38" height="38" filterUnits="userSpaceOnUse" color-interpolation-filters="sRGB">
<feFlood flood-opacity="0" result="BackgroundImageFix"/>
<feColorMatrix in="SourceAlpha" type="matrix" values="0 0 0 0 0 0 0 0 0 0 0 0 0 0 0 0 0 0 127 0" result="hardAlpha"/>
<feOffset/>
<feGaussianBlur stdDeviation="4"/>
<feComposite in2="hardAlpha" operator="out"/>
<feColorMatrix type="matrix" values="0 0 0 0 0 0 0 0 0 0 0 0 0 0 0 0 0 0 0.48 0"/>
<feBlend mode="normal" in2="BackgroundImageFix" result="effect1_dropShadow_13639_37793"/>
<feBlend mode="normal" in="SourceGraphic" in2="effect1_dropShadow_13639_37793" result="shape"/>
</filter>
</defs>
</svg>
