<svg width="18" height="18" viewBox="0 0 18 18" fill="none" xmlns="http://www.w3.org/2000/svg">
<path d="M8.89287 6.56689C9.27312 6.96829 9.68939 7.35079 10.0647 7.75099L10.069 7.75955C10.4546 8.14585 10.8561 8.56124 11.2499 8.93567L6.40594 13.7766L5.25035 14.934C5.03608 15.1486 4.52823 15.6924 4.28472 15.8218H3.95449C3.71317 15.6789 3.17686 15.1109 2.96308 14.8852C2.7107 14.6183 2.16067 14.129 2 13.8491V13.5558C2.15384 13.2536 2.98696 12.4714 3.27072 12.1879L4.92096 10.5397L7.57921 7.88135C8.00959 7.45071 8.45636 6.98729 8.89287 6.56689Z" fill="url(#paint0_linear_13639_37763)"/>
<path d="M8.89258 6.56696C9.17914 6.29185 9.47942 5.97498 9.76212 5.69097L11.2781 4.17558C11.5845 3.86793 11.8902 3.55453 12.2016 3.25231C12.7501 2.71981 13.0624 3.13341 13.4659 3.54493C13.5943 3.6752 13.7236 3.80465 13.8536 3.93328C14.0723 4.12942 14.2758 4.34533 14.4829 4.54609C14.8472 4.89931 15.0057 5.19047 14.5918 5.59352C13.4653 6.6905 12.375 7.83897 11.2496 8.93574C10.8558 8.56131 10.4543 8.14592 10.0687 7.75962L10.0644 7.75106C9.6891 7.35086 9.27283 6.96836 8.89258 6.56696Z" fill="#D6E3F1"/>
<path fill-rule="evenodd" clip-rule="evenodd" d="M6.20306 4.72577L4.30031 5.38727C4.21781 5.38727 4.21781 5.46977 4.21781 5.46977L3.55631 7.45502C3.47381 7.78577 3.05981 7.78577 2.89481 7.45502L2.23331 5.55227C2.23331 5.46977 2.15081 5.46977 2.15081 5.46977L0.248062 4.80827C-0.0826875 4.64252 -0.0826875 4.22927 0.248062 4.14677L2.15081 3.48527C2.23331 3.48527 2.23331 3.40277 2.23331 3.40277L2.89481 1.50002C2.97731 1.16927 3.39131 1.16927 3.55631 1.50002L4.21781 3.31952C4.21781 3.40202 4.30031 3.40202 4.30031 3.40202L6.20306 4.06352C6.53381 4.22927 6.53381 4.64327 6.20306 4.72577Z" fill="#ED73B6"/>
<path fill-rule="evenodd" clip-rule="evenodd" d="M17.7308 13.7694L15.6662 14.4872C15.5767 14.4872 15.5767 14.5767 15.5767 14.5767L14.8589 16.7308C14.7694 17.0897 14.3201 17.0897 14.1411 16.7308L13.4233 14.6662C13.4233 14.5767 13.3338 14.5767 13.3338 14.5767L11.2692 13.8589C10.9103 13.679 10.9103 13.2306 11.2692 13.1411L13.3338 12.4233C13.4233 12.4233 13.4233 12.3338 13.4233 12.3338L14.1411 10.2692C14.2306 9.91028 14.6799 9.91028 14.8589 10.2692L15.5767 12.2435C15.5767 12.333 15.6662 12.333 15.6662 12.333L17.7308 13.0508C18.0897 13.2306 18.0897 13.6799 17.7308 13.7694Z" fill="#BD96E4"/>
<defs>
<linearGradient id="paint0_linear_13639_37763" x1="6.62496" y1="6.56689" x2="6.62496" y2="15.8218" gradientUnits="userSpaceOnUse">
<stop stop-color="#6976CB"/>
<stop offset="1" stop-color="#485086"/>
</linearGradient>
</defs>
</svg>
