<svg width="16" height="16" viewBox="0 0 16 16" fill="none" xmlns="http://www.w3.org/2000/svg">
<path fill-rule="evenodd" clip-rule="evenodd" d="M10.6588 2.54768C11.43 1.77642 12.6805 1.77642 13.4517 2.54768C14.223 3.31894 14.223 4.5694 13.4517 5.34065L5.0351 13.7573C4.92258 13.8698 4.76997 13.9331 4.61084 13.9331H2.6664C2.33503 13.9331 2.06641 13.6644 2.06641 13.3331V11.3886C2.06641 11.2295 2.12962 11.0769 2.24214 10.9643L10.6588 2.54768ZM12.6032 3.39621C12.3006 3.09358 11.8099 3.09358 11.5073 3.39621L3.2664 11.6371V12.7331H4.36231L12.6032 4.49213C12.9058 4.1895 12.9058 3.69884 12.6032 3.39621Z" fill="#C2C4C8" fill-opacity="0.88"/>
</svg>
