<svg width="18" height="18" viewBox="0 0 18 18" fill="none" xmlns="http://www.w3.org/2000/svg">
<path d="M5.95861 2.55619L15.1687 7.3505C15.4766 7.51077 15.748 7.652 15.9531 7.78384C16.1573 7.91505 16.4045 8.10196 16.5423 8.39749C16.7203 8.77925 16.7203 9.22021 16.5423 9.60197C16.4045 9.89751 16.1573 10.0844 15.9531 10.2156C15.748 10.3475 15.4767 10.4887 15.1687 10.649L5.95861 15.4433C5.5906 15.6349 5.2744 15.7995 5.01702 15.9056C4.77161 16.0067 4.43687 16.1196 4.08496 16.041C3.64437 15.9425 3.27652 15.6411 3.09335 15.2284C2.94705 14.8989 2.99195 14.5485 3.04289 14.288C3.09632 14.0147 3.19555 13.6724 3.31106 13.2739L4.35411 9.67473H9.75011C10.1229 9.67473 10.4251 9.37253 10.4251 8.99973C10.4251 8.62694 10.1229 8.32473 9.75011 8.32473H4.35411L3.31106 4.72562C3.19556 4.3271 3.09632 3.98474 3.04289 3.71152C2.99195 3.451 2.94705 3.1006 3.09335 2.77102C3.27652 2.35839 3.64437 2.05696 4.08496 1.95848C4.43687 1.87983 4.77161 1.99274 5.01702 2.0939C5.27441 2.19999 5.59058 2.36459 5.95861 2.55619Z" fill="#F7F7F8"/>
</svg>
