<svg width="27" height="27" viewBox="0 0 27 27" fill="none" xmlns="http://www.w3.org/2000/svg">
  <path d="M8.16667 22.3333C7.70643 22.3333 7.33333 21.9602 7.33333 21.5C7.33333 21.0398 7.70643 20.6667 8.16667 20.6667C8.6269 20.6667 9 21.0398 9 21.5C9 21.9602 8.6269 22.3333 8.16667 22.3333Z" fill="#C2C4C8" fill-opacity="0.88"/>
  <path d="M18.1667 5.66667C17.7064 5.66667 17.3333 5.29357 17.3333 4.83333C17.3333 4.3731 17.7064 4 18.1667 4C18.6269 4 19 4.3731 19 4.83333C19 5.29357 18.6269 5.66667 18.1667 5.66667Z" fill="#C2C4C8" fill-opacity="0.88"/>
  <path d="M21.5 9C21.0398 9 20.6667 8.6269 20.6667 8.16667C20.6667 7.70643 21.0398 7.33333 21.5 7.33333C21.9602 7.33333 22.3333 7.70643 22.3333 8.16667C22.3333 8.6269 21.9602 9 21.5 9Z" fill="#C2C4C8" fill-opacity="0.88"/>
  <path d="M12.079 7.35547C12.3556 6.21484 13.9778 6.21484 14.2544 7.35547L15.0154 10.494C15.1142 10.9012 15.4321 11.2192 15.8394 11.3179L18.9779 12.079C20.1185 12.3556 20.1185 13.9778 18.9779 14.2544L15.8394 15.0154C15.4321 15.1142 15.1142 15.4321 15.0154 15.8394L14.2544 18.9779C13.9778 20.1185 12.3556 20.1185 12.079 18.9779L11.3179 15.8394C11.2192 15.4321 10.9012 15.1142 10.494 15.0154L7.35547 14.2544C6.21484 13.9778 6.21484 12.3556 7.35547 12.079L10.494 11.3179C10.9012 11.2192 11.2192 10.9012 11.3179 10.494L12.079 7.35547Z" fill="#C2C4C8" fill-opacity="0.88"/>
  <path fill-rule="evenodd" clip-rule="evenodd" d="M21.7623 15.6628C22.1503 15.8076 22.3475 16.2396 22.2027 16.6277C21.2644 19.1414 19.3168 21.1605 16.8524 22.1919C16.4703 22.3518 16.0309 22.1716 15.871 21.7895C15.7111 21.4074 15.8912 20.968 16.2733 20.8081C18.3562 19.9365 20.0043 18.2279 20.7973 16.1032C20.9422 15.7151 21.3742 15.5179 21.7623 15.6628Z" fill="#C2C4C8" fill-opacity="0.88"/>
  <path fill-rule="evenodd" clip-rule="evenodd" d="M10.684 4.57053C10.8291 4.95848 10.6323 5.39064 10.2443 5.53578C8.10796 6.33505 6.39227 8.00242 5.5271 10.1089C5.36972 10.492 4.93154 10.6751 4.54839 10.5177C4.16523 10.3603 3.9822 9.92213 4.13957 9.53898C5.16278 7.04775 7.18999 5.07694 9.71873 4.13088C10.1067 3.98574 10.5388 4.18258 10.684 4.57053Z" fill="#C2C4C8" fill-opacity="0.88"/>
  <path d="M4.83333 19C4.3731 19 4 18.6269 4 18.1667C4 17.7064 4.3731 17.3333 4.83333 17.3333C5.29357 17.3333 5.66667 17.7064 5.66667 18.1667C5.66667 18.6269 5.29357 19 4.83333 19Z" fill="#C2C4C8" fill-opacity="0.88"/>
</svg>
