<svg width="24" height="24" viewBox="0 0 24 24" fill="none" xmlns="http://www.w3.org/2000/svg">
  <defs>
    <radialGradient id="hf-body" cx="0.35" cy="0.55" r="0.85">
      <stop offset="0" stop-color="#FFE5C2"/>
      <stop offset="0.3" stop-color="#FFB347"/>
      <stop offset="0.65" stop-color="#FF4520"/>
      <stop offset="1" stop-color="#7A0E00"/>
    </radialGradient>
    <radialGradient id="hf-flame" cx="0.5" cy="0.9" r="0.9">
      <stop offset="0" stop-color="#FFF7B0"/>
      <stop offset="0.4" stop-color="#FFD04B"/>
      <stop offset="0.75" stop-color="#FF6B2C"/>
      <stop offset="1" stop-color="#B81400"/>
    </radialGradient>
    <radialGradient id="hf-glow" cx="0.5" cy="0.5" r="0.6">
      <stop offset="0" stop-color="#FFC94B" stop-opacity="0.7"/>
      <stop offset="0.5" stop-color="#FF4520" stop-opacity="0.4"/>
      <stop offset="1" stop-color="#FF4520" stop-opacity="0"/>
    </radialGradient>
  </defs>
  <!-- Outer flame halo -->
  <circle cx="12" cy="14" r="10.5" fill="url(#hf-glow)"/>
  <!-- Main flame rising from heart top -->
  <path d="M12 1.5C11 3.5 9 4.5 9 7C9 9 10.8 10 12 10C10.8 8.8 11.2 7.3 12.1 6.5C12.7 8 14 8.3 14.5 7C15 5.6 14.5 4 13.5 2.7C13 2 12.5 1.7 12 1.5Z"
    fill="url(#hf-flame)" stroke="#7A0800" stroke-width="0.6" stroke-linejoin="round"/>
  <!-- Heart shape (classic rounded) -->
  <path d="M12 22C12 22 3.5 16.5 3.5 11C3.5 7.96 5.96 5.5 9 5.5C10.77 5.5 12 6.4 12 7.5C12 6.4 13.23 5.5 15 5.5C18.04 5.5 20.5 7.96 20.5 11C20.5 16.5 12 22 12 22Z"
    fill="url(#hf-body)"
    stroke="#7A0E00" stroke-width="1.1" stroke-linejoin="round"/>
  <!-- Gloss -->
  <ellipse cx="8.4" cy="10.5" rx="2" ry="1.3" fill="#FFE1B0" opacity="0.6" transform="rotate(-25 8.4 10.5)"/>
  <!-- Ember sparkles -->
  <circle cx="20" cy="4.5" r="0.6" fill="#FFDC5A"/>
  <circle cx="20" cy="4.5" r="1.3" fill="#FFDC5A" opacity="0.4"/>
  <circle cx="4" cy="7" r="0.4" fill="#FFB347"/>
  <circle cx="21" cy="15" r="0.5" fill="#FFDC5A" opacity="0.8"/>
</svg>
