<svg width="31" height="31" viewBox="0 0 31 31" fill="none" xmlns="http://www.w3.org/2000/svg">
  <path d="M15.425 8C15.0522 8 14.75 8.30221 14.75 8.675C14.75 9.04779 15.0522 9.35 15.425 9.35C18.7801 9.35 21.4999 12.0699 21.4999 15.425C21.4999 18.7801 18.7801 21.5 15.425 21.5C12.0699 21.5 9.34999 18.7801 9.34999 15.425C9.34999 15.0522 9.04779 14.75 8.675 14.75C8.30221 14.75 8 15.0522 8 15.425C8 19.5257 11.3243 22.85 15.425 22.85C19.5257 22.85 22.8499 19.5257 22.8499 15.425C22.8499 11.3243 19.5257 8 15.425 8Z" fill="#F7F7F8"/>
  <path d="M13.5339 8.89987C13.6926 9.28249 13.5111 9.72129 13.1284 9.87995C12.7458 10.0386 12.307 9.85707 12.1484 9.47445C11.9897 9.09183 12.1712 8.65303 12.5539 8.49437C12.9365 8.3357 13.3753 8.51725 13.5339 8.89987Z" fill="#F7F7F8"/>
  <path d="M11.1823 10.1217C11.4752 10.4146 11.4752 10.8894 11.1823 11.1823C10.8894 11.4752 10.4146 11.4752 10.1217 11.1823C9.82879 10.8894 9.82879 10.4146 10.1217 10.1217C10.4146 9.82878 10.8894 9.82877 11.1823 10.1217Z" fill="#F7F7F8"/>
  <path d="M9.47447 12.1484C9.85709 12.307 10.0386 12.7458 9.87997 13.1284C9.72131 13.5111 9.28251 13.6926 8.89989 13.5339C8.51727 13.3753 8.33572 12.9365 8.49439 12.5539C8.65305 12.1712 9.09185 11.9897 9.47447 12.1484Z" fill="#F7F7F8"/>
  <path d="M15.05 11.375C15.4228 11.375 15.725 11.6772 15.725 12.05V15.5205L17.3833 17.1789C17.6469 17.4425 17.6469 17.8698 17.3833 18.1335C17.1197 18.3971 16.6923 18.3971 16.4287 18.1335L14.5726 16.2773C14.4379 16.1427 14.3721 15.9653 14.375 15.7888V12.05C14.375 11.6772 14.6772 11.375 15.05 11.375Z" fill="#F7F7F8"/>
</svg>
