<svg width="24" height="24" viewBox="0 0 24 24" fill="none" xmlns="http://www.w3.org/2000/svg">
  <defs>
    <radialGradient id="m1-face" cx="0.35" cy="0.3" r="0.9">
      <stop offset="0" stop-color="#FFF4C2"/>
      <stop offset="0.35" stop-color="#FFD966"/>
      <stop offset="0.75" stop-color="#F5A623"/>
      <stop offset="1" stop-color="#B26A00"/>
    </radialGradient>
    <linearGradient id="m1-rim" x1="0" y1="0" x2="1" y2="1">
      <stop offset="0" stop-color="#FFE580"/>
      <stop offset="0.5" stop-color="#FFB100"/>
      <stop offset="1" stop-color="#8A4600"/>
    </linearGradient>
    <linearGradient id="m1-ribbon-l" x1="0.3" y1="0" x2="0.6" y2="1">
      <stop offset="0" stop-color="#FF4757"/>
      <stop offset="1" stop-color="#A91122"/>
    </linearGradient>
    <linearGradient id="m1-ribbon-r" x1="0.7" y1="0" x2="0.4" y2="1">
      <stop offset="0" stop-color="#FF6B7A"/>
      <stop offset="1" stop-color="#A91122"/>
    </linearGradient>
  </defs>
  <!-- Ribbons -->
  <path d="M5 1L10.5 10L8 12.5L3 3Z" fill="url(#m1-ribbon-l)"/>
  <path d="M19 1L13.5 10L16 12.5L21 3Z" fill="url(#m1-ribbon-r)"/>
  <!-- Medal body outer rim -->
  <circle cx="12" cy="15" r="7.5" fill="url(#m1-rim)"/>
  <!-- Medal face -->
  <circle cx="12" cy="15" r="6" fill="url(#m1-face)"/>
  <!-- Inner highlight -->
  <ellipse cx="10" cy="13" rx="2.5" ry="1.2" fill="#fff" opacity="0.55"/>
  <!-- Star ornament -->
  <path d="M12 11.5L12.9 13.8L15.3 14L13.5 15.6L14.1 18L12 16.7L9.9 18L10.5 15.6L8.7 14L11.1 13.8Z" fill="#FFFBEB" stroke="#B26A00" stroke-width="0.5" stroke-linejoin="round"/>
  <!-- Sparkle dot -->
  <circle cx="19" cy="4" r="0.9" fill="#fff"/>
  <circle cx="19" cy="4" r="1.8" fill="#fff" opacity="0.4"/>
</svg>
